<?xml version="1.0" encoding="UTF-8"?><svg id="Layer_1" xmlns="http://www.w3.org/2000/svg" viewBox="0 0 377.87 419.74"><path d="M298.63,350.93h-79.76c-1.03,0-1.86-.83-1.86-1.86v-13.2c0-1.03,.83-1.86,1.86-1.86h31.02v-38.37c-1.49,1.43-3.14,2.5-5.01,3.23-3.15,1.24-5.36,1.73-7.87,1.75-.16,0-.31,0-.47,.02-.23,.01-.45,.03-.69,.02-2.8,0-5.56-.01-8.33-.02-2.76,0-5.52-.02-8.33-.02-1.04,0-1.88-.84-1.88-1.88v-12.56c0-1.04,.84-1.88,1.88-1.88h13.2c4.4,0,8.49-1.76,11.21-4.82,.2-.22,.39-.45,.58-.69,3.37-4.29,3.31-9.07,3.13-10.92-.05-.53,.12-1.05,.48-1.44,.36-.39,.86-.62,1.39-.62h17.77c1.04,0,1.88,.84,1.88,1.88v66.75h29.81c1.04,0,1.88,.85,1.88,1.88v12.72c0,1.04-.85,1.89-1.88,1.89Zm-78.63-3h77.51v-10.49h-29.85c-1.01,0-1.84-.83-1.84-1.84v-66.79h-15.46c.07,2.7-.4,7.47-3.83,11.83-.23,.29-.46,.57-.69,.83-3.29,3.7-8.19,5.83-13.45,5.83h-12.08v10.32c2.42,0,4.82,.01,7.21,.02,2.76,0,5.52,.02,8.32,.02,.15,.01,.36,0,.54-.02,.2,0,.39-.02,.58-.02,2.11-.02,4.02-.45,6.8-1.54,2.21-.87,4.08-2.34,5.7-4.51,.49-.66,1.34-.92,2.12-.66,.78,.26,1.3,.98,1.3,1.8v42.3c0,1.1-.9,2-2,2h-30.88v10.92Z" fill="#f15e29"/></svg>