<?xml version="1.0" encoding="UTF-8"?><svg id="Layer_1" xmlns="http://www.w3.org/2000/svg" viewBox="0 0 377.87 419.74"><path d="M306.35,152.01h-102.5c-11.35,0-20.59-9.23-20.59-20.59v-49.61c0-1.16-.95-2.11-2.11-2.11H82.22c-2.46,0-4.46-2-4.46-4.46v-8.51c0-2.46,2-4.46,4.46-4.46h101.52c10.42,0,18.9,8.48,18.9,18.9v49.35c0,2.23,1.82,4.05,4.05,4.05h99.66c2.34,0,4.25,1.91,4.25,4.25v8.93c0,2.34-1.91,4.25-4.25,4.25ZM82.22,65.29c-.81,0-1.46,.66-1.46,1.46v8.51c0,.81,.66,1.46,1.46,1.46h98.94c2.82,0,5.11,2.29,5.11,5.11v49.61c0,9.7,7.89,17.59,17.59,17.59h102.5c.69,0,1.25-.56,1.25-1.25v-8.93c0-.69-.56-1.25-1.25-1.25h-99.66c-3.89,0-7.05-3.16-7.05-7.05v-49.35c0-8.77-7.13-15.9-15.9-15.9H82.22Z" fill="#bcbec0"/><path d="M97.11,153.5h-10.02c-2.38,0-4.32-1.94-4.32-4.32v-35.97c0-10.56,8.59-19.15,19.15-19.15h58.84c2.38,0,4.32,1.94,4.32,4.32v8.79c0,2.38-1.94,4.32-4.32,4.32h-57.56c-.98,0-1.77,.8-1.77,1.77v35.91c0,2.38-1.94,4.32-4.32,4.32Zm4.81-56.44c-8.91,0-16.15,7.25-16.15,16.15v35.97c0,.73,.59,1.32,1.32,1.32h10.02c.73,0,1.32-.59,1.32-1.32v-35.91c0-2.63,2.14-4.77,4.77-4.77h57.56c.73,0,1.32-.59,1.32-1.32v-8.79c0-.73-.59-1.32-1.32-1.32h-58.84Z" fill="#bcbec0"/><path d="M303.74,254.08h-104.23c-8.95,0-16.24-7.28-16.24-16.24v-51.07c0-1.57-1.28-2.85-2.85-2.85H102.82c-.76,0-1.38,.62-1.38,1.38v50.28c0,1.01,.82,1.83,1.83,1.83h57.05c2.45,0,4.44,1.99,4.44,4.44v7.79c0,2.45-1.99,4.44-4.44,4.44h-59.32c-10.04,0-18.21-8.17-18.21-18.21v-63.61c0-2.42,1.97-4.38,4.38-4.38h95.18c11.2,0,20.3,9.11,20.3,20.3v47.02c0,.96,.78,1.75,1.75,1.75h84.18c.68,0,1.23-.55,1.23-1.23v-49.54c0-1.25-1.01-2.26-2.26-2.26h-69.72c-2.38,0-4.32-1.93-4.33-4.31l-.03-7.4c0-1.16,.44-2.25,1.26-3.07,.82-.82,1.91-1.27,3.06-1.27h72.39c9.91,0,17.96,8.06,17.96,17.96v63.82c0,2.43-1.98,4.41-4.41,4.41ZM102.82,180.93h77.6c3.23,0,5.85,2.62,5.85,5.85v51.07c0,7.3,5.94,13.24,13.24,13.24h104.23c.78,0,1.41-.63,1.41-1.41v-63.82c0-8.25-6.71-14.96-14.96-14.96h-72.39c-.35,0-.69,.14-.94,.39-.25,.25-.39,.59-.39,.94l.03,7.4c0,.73,.6,1.32,1.33,1.32h69.72c2.9,0,5.26,2.36,5.26,5.26v49.54c0,2.33-1.9,4.23-4.23,4.23h-84.18c-2.62,0-4.75-2.13-4.75-4.75v-47.02c0-9.54-7.76-17.3-17.3-17.3H87.16c-.76,0-1.38,.62-1.38,1.38v63.61c0,8.38,6.82,15.21,15.21,15.21h59.32c.79,0,1.44-.64,1.44-1.44v-7.79c0-.79-.64-1.44-1.44-1.44h-57.05c-2.66,0-4.83-2.17-4.83-4.83v-50.28c0-2.42,1.97-4.38,4.38-4.38Z" fill="#bcbec0"/><path d="M198.2,350.93h-59.79c-9.88,0-17.92-8.04-17.92-17.92v-23.79c0-2.35,1.91-4.27,4.27-4.27h57.18c.74,0,1.34-.6,1.34-1.34v-18.86c0-.92-.75-1.67-1.67-1.67H102.8c-.75,0-1.37,.61-1.37,1.37v62.01c0,2.47-2.01,4.47-4.47,4.47h-9.71c-2.47,0-4.47-2.01-4.47-4.47v-74.44c0-2.41,1.96-4.37,4.37-4.37h95.91c10.8,0,19.59,8.79,19.59,19.59v29.12c0,2.39-1.95,4.34-4.34,4.34h-57.43c-.7,0-1.27,.57-1.27,1.27v9.97c0,1.04,.84,1.88,1.88,1.88h56.89c2.35,0,4.27,1.92,4.27,4.27v8.41c0,2.45-1.99,4.44-4.44,4.44Zm-73.45-42.98c-.7,0-1.27,.57-1.27,1.27v23.79c0,8.23,6.7,14.92,14.92,14.92h59.79c.79,0,1.44-.65,1.44-1.44v-8.41c0-.7-.57-1.27-1.27-1.27h-56.89c-2.69,0-4.88-2.19-4.88-4.88v-9.97c0-2.35,1.91-4.27,4.27-4.27h57.43c.74,0,1.34-.6,1.34-1.34v-29.12c0-9.15-7.44-16.59-16.59-16.59H87.14c-.75,0-1.37,.61-1.37,1.37v74.44c0,.81,.66,1.47,1.47,1.47h9.71c.81,0,1.47-.66,1.47-1.47v-62.01c0-2.41,1.96-4.37,4.37-4.37h78.79c2.58,0,4.67,2.1,4.67,4.67v18.86c0,2.39-1.95,4.34-4.34,4.34h-57.18Z" fill="#bcbec0"/></svg>